<svg version="1.1" id="Layer_1" xmlns="http://www.w3.org/2000/svg" xmlns:xlink="http://www.w3.org/1999/xlink" x="0px" y="0px"
	 width="100%" viewBox="0 0 1024 1024" enable-background="new 0 0 1024 1024" xml:space="preserve">
<path fill="#000000" opacity="1.000000" stroke="none" 
	d="
M553.390137,245.208832 
	C574.208801,236.782501 594.953247,234.889984 616.026978,242.665848 
	C622.480896,245.047241 628.282471,248.769669 633.820435,252.729462 
	C658.475525,270.358490 684.084351,286.642151 707.957703,305.375732 
	C716.630310,312.181122 726.650940,316.922363 735.772461,323.063660 
	C746.396484,330.216522 755.402222,338.818817 759.198914,351.356689 
	C762.228088,361.359955 761.096924,371.803619 760.760864,382.127716 
	C760.470398,391.050720 760.700439,399.990601 760.700439,408.988739 
	C767.993530,409.390289 774.867859,407.391144 781.875732,408.474792 
	C795.330688,410.555359 804.373352,419.971069 805.415222,433.457733 
	C806.611694,448.945862 805.228027,464.385742 804.564514,479.846649 
	C804.007690,492.823151 804.641968,505.856659 803.254761,518.793152 
	C801.242432,537.558838 803.313599,556.438110 801.427307,575.194702 
	C799.391968,595.432617 792.494934,614.114929 782.556702,631.647644 
	C761.279602,669.184021 731.872742,698.900574 695.853699,722.616821 
	C670.578308,739.259033 643.612061,752.061218 615.060913,761.518738 
	C585.123657,771.435303 554.216003,776.185913 522.634888,775.090759 
	C505.635162,774.501282 488.825623,772.217834 472.889221,765.520996 
	C459.996979,760.103333 450.461456,751.383057 444.812927,738.525024 
	C444.611969,738.067566 444.413208,737.608887 444.200958,737.156616 
	C439.356201,726.834167 438.438477,726.391113 427.910645,730.393677 
	C418.873566,733.829407 409.976105,733.442627 401.138580,729.831177 
	C386.837982,723.987427 374.394043,714.923767 361.454346,706.742737 
	C323.708679,682.878235 287.410919,656.841064 250.068680,632.366394 
	C223.915466,615.225220 213.943878,590.453918 217.964996,560.037598 
	C220.366516,541.872070 220.312149,523.958740 217.607895,505.853699 
	C215.817276,493.865387 214.879318,481.705383 214.320328,469.587158 
	C213.323700,447.980896 212.156738,426.334625 215.597977,404.797119 
	C222.695389,360.377106 244.283920,324.072601 277.190094,293.942078 
	C287.546692,284.459076 298.332428,275.598389 310.083069,267.945007 
	C313.218353,265.902954 314.027496,263.566742 313.436066,259.981018 
	C312.327087,253.257645 311.956726,246.513077 312.258392,239.615295 
	C312.909729,224.722488 325.448608,213.314056 341.918396,212.844498 
	C367.738708,212.108322 393.551819,213.613266 419.361969,214.451141 
	C433.846283,214.921356 448.351257,214.528702 462.822235,215.670197 
	C472.798859,216.457169 482.737762,217.366241 492.268341,220.668350 
	C509.119324,226.506836 516.878601,239.492142 514.702454,257.132690 
	C514.178467,261.379974 512.323853,265.889282 515.182068,271.325745 
	C527.846802,262.302582 539.454834,252.310242 553.390137,245.208832 
M472.675537,626.138306 
	C461.018494,635.138000 461.155090,644.979431 473.159119,653.390564 
	C477.955719,656.751465 483.240723,659.091797 488.872162,660.861206 
	C500.784180,664.603821 513.224854,664.098694 525.361572,665.926270 
	C533.732300,667.186768 542.355286,666.052612 550.591736,668.572388 
	C550.764465,669.205811 550.955383,669.661255 550.997986,670.130188 
	C551.042542,670.619446 550.800537,671.163391 550.930298,671.612061 
	C552.738037,677.859924 552.748352,677.856079 546.042175,677.953918 
	C544.209473,677.980652 542.375977,677.987854 540.544556,678.051941 
	C538.946899,678.107727 537.483459,678.471924 537.315979,680.429688 
	C537.100525,682.948914 535.253967,683.335022 533.291931,684.115662 
	C521.522217,688.798279 508.692383,689.853577 497.052368,695.165527 
	C491.344452,697.770325 484.692352,698.214172 478.397339,697.646118 
	C466.871918,696.605896 463.098785,699.791016 463.303558,711.340149 
	C463.348907,713.896667 463.959229,716.289062 464.918152,718.604797 
	C470.604828,732.337952 482.512451,737.778137 495.741791,740.490234 
	C530.043823,747.522278 564.050171,744.411682 597.465942,735.177185 
	C630.095459,726.160034 660.528320,712.154663 688.493286,692.801941 
	C713.821716,675.273560 736.021118,654.635986 753.293945,629.087952 
	C760.274536,618.763062 765.840881,607.528259 768.337280,595.068542 
	C768.969360,591.913696 768.888123,588.952820 766.050415,586.966431 
	C763.367371,585.088318 760.637451,586.227051 758.019165,587.497925 
	C755.921936,588.515808 753.878906,589.728394 751.677124,590.435059 
	C732.743469,596.511475 714.780518,604.650146 697.986267,615.333313 
	C696.524658,616.263062 695.021301,617.622131 692.955872,616.138428 
	C693.152893,615.658081 693.212708,615.098145 693.524170,614.820862 
	C695.388489,613.161560 697.215332,611.436035 699.228271,609.971313 
	C721.426147,593.819458 739.790588,574.227417 754.881531,551.178772 
	C777.091797,517.256653 784.722839,480.126312 781.728577,440.303619 
	C781.190491,433.146240 777.793030,431.056702 770.604736,431.994476 
	C759.632385,433.425934 749.325378,437.237030 738.777100,440.270905 
	C706.957764,449.422607 675.026062,458.183136 643.156555,467.161224 
	C637.394348,468.784485 631.560486,470.378967 626.681763,474.102203 
	C621.920715,477.735565 621.052612,481.967224 623.711853,487.300598 
	C625.084106,490.052673 626.905457,492.508301 629.486694,494.069305 
	C641.019226,501.043823 652.580872,507.977081 664.293396,514.641663 
	C667.051270,516.210876 667.797302,517.179443 666.299622,520.298340 
	C662.710754,527.771973 657.606506,534.002014 652.166870,540.144470 
	C636.774719,557.525208 619.278564,571.966431 598.506897,582.740112 
	C564.719543,600.264709 527.983154,608.537415 491.684143,618.270020 
	C485.191467,620.010803 478.960419,622.145142 472.675537,626.138306 
M518.247559,301.768250 
	C488.423676,323.899139 457.563995,344.517792 426.688660,365.141724 
	C390.415741,389.371063 354.630371,414.330597 318.658936,439.010406 
	C317.102844,440.078003 315.027832,440.866852 314.926758,443.765228 
	C324.951630,448.105804 329.148529,457.200134 331.863464,466.962402 
	C334.835297,477.648163 333.896576,488.060333 327.259033,497.500488 
	C323.677856,502.593811 319.107483,506.713440 314.683044,510.999908 
	C313.309052,512.331055 311.352509,513.287170 311.101105,515.659485 
	C325.232910,524.723267 339.422852,533.667053 353.434448,542.881897 
	C359.790039,547.061707 359.617279,547.293030 365.155853,541.847107 
	C369.681000,537.397583 374.166138,532.600220 380.489685,530.991821 
	C406.242096,524.441833 430.431335,527.922729 452.127197,543.768494 
	C455.769226,546.428528 457.764801,546.136108 461.107025,543.915527 
	C483.179749,529.250183 503.639862,512.395020 525.139526,496.940857 
	C560.281250,471.680756 596.582031,448.096283 631.421509,422.408478 
	C645.345764,412.141907 660.395752,403.431976 673.696655,392.245300 
	C676.249756,390.097992 676.805542,388.586304 674.818054,385.722382 
	C670.013245,378.798889 666.724121,371.059906 665.500183,362.760742 
	C663.448547,348.850098 664.085693,335.427002 675.524292,324.956299 
	C676.700256,323.879883 678.119995,322.824066 678.502686,320.237518 
	C664.410522,311.743439 651.612305,300.886444 637.423218,291.643127 
	C633.477417,295.230347 629.214172,297.996216 624.543579,300.298401 
	C615.893799,304.562073 606.770264,307.055054 597.276794,307.895447 
	C575.656006,309.809418 554.770447,308.857452 539.300964,290.307800 
	C537.626465,288.299866 535.887268,287.698120 533.937500,289.946198 
	C529.711060,294.819183 523.957886,297.667389 518.247559,301.768250 
M454.523102,611.000793 
	C461.156403,605.016846 468.429657,600.122192 477.214569,597.876343 
	C492.749329,593.904785 505.371216,583.654968 520.127502,578.014160 
	C530.116516,574.195801 538.237671,566.914185 548.316895,563.127808 
	C554.408752,560.839417 560.948730,558.126892 562.942261,550.808411 
	C565.300842,542.150085 570.793579,536.841309 579.163940,534.056152 
	C584.658386,532.227844 586.667664,527.903503 586.847900,522.408020 
	C586.989075,518.103210 586.400452,513.714661 588.123718,509.561340 
	C589.020569,507.399841 588.399902,505.705536 586.579712,504.302887 
	C584.604187,502.780579 583.152588,504.115448 581.654175,505.120178 
	C561.749573,518.466736 542.095886,532.184570 523.167725,546.878662 
	C494.192413,569.372498 463.243866,589.014038 432.756927,609.274475 
	C415.772095,620.561890 397.246948,621.609558 379.145233,609.910522 
	C366.006989,601.419373 352.192108,594.044434 339.168518,585.310730 
	C315.801636,569.640808 292.053925,554.537781 268.430573,539.251648 
	C261.387482,534.694214 254.228226,530.316406 246.347488,525.369995 
	C246.347488,528.062683 246.369415,529.698853 246.343933,531.334229 
	C246.170074,542.495483 246.773575,553.738647 245.619507,564.798218 
	C243.924911,581.037903 249.727539,593.310364 262.276031,603.103516 
	C273.713013,612.029114 285.718414,620.142456 297.819275,628.094360 
	C329.267273,648.759949 359.548401,671.205261 392.350769,689.813416 
	C405.453613,697.246399 418.864502,697.390869 432.812225,693.151794 
	C437.177887,691.824951 438.741364,688.997742 438.770538,684.571228 
	C438.851654,672.257446 438.064758,659.957703 438.576385,647.631775 
	C439.160797,633.551636 443.465820,621.225525 454.523102,611.000793 
M290.171234,422.274139 
	C290.557098,419.986755 290.841949,417.676941 291.344330,415.415436 
	C296.716125,391.234131 309.541016,371.638855 328.546478,356.072144 
	C350.510742,338.082031 373.827911,322.134033 399.812927,310.366180 
	C401.388611,309.652618 402.556946,309.603333 403.941589,310.588074 
	C410.855011,315.505005 418.439453,319.466370 424.771210,325.211884 
	C428.596649,328.683167 432.793732,329.394348 437.702209,327.574036 
	C445.067505,324.842651 450.531494,319.969391 454.639832,313.447571 
	C466.182892,295.123413 476.754608,276.231415 487.134399,257.237274 
	C493.380707,245.807053 488.836334,238.093521 475.747345,237.335251 
	C468.607819,236.921631 461.463745,236.571640 454.330170,236.072037 
	C420.604828,233.709991 386.782959,234.007751 353.030914,232.381042 
	C350.885193,232.277618 348.687317,232.400253 346.569855,232.754074 
	C342.745483,233.393112 338.780701,234.202621 337.514313,238.634842 
	C336.186310,243.282639 337.740295,246.943069 341.592987,250.003113 
	C346.357086,253.787079 350.801392,257.973755 355.328156,261.937683 
	C354.215790,264.246857 352.439697,264.938171 350.937714,265.916534 
	C341.312073,272.186310 331.429016,278.092560 322.081604,284.751495 
	C299.563538,300.792999 279.721649,319.444763 264.035706,342.570068 
	C249.560257,363.910828 242.527069,387.508240 240.545578,412.678436 
	C239.337830,428.019989 240.147842,443.513916 241.147034,459.843964 
	C246.052414,454.634186 250.749298,450.073242 256.183655,446.340240 
	C267.425903,438.617615 278.543091,430.712921 290.171234,422.274139 
M730.085754,416.812744 
	C735.835815,413.718933 739.556763,405.319672 737.719360,399.390900 
	C736.930969,396.847198 735.404846,395.765808 732.860046,397.491364 
	C726.673950,401.685852 719.927795,405.017517 714.144653,409.850159 
	C712.432495,411.280914 711.458740,412.604340 711.971497,414.909882 
	C712.545471,417.490448 714.345581,418.324158 716.629944,418.690155 
	C721.031616,419.395416 725.245117,418.665314 730.085754,416.812744 
z"/>
<path fill="#000000" opacity="1.000000" stroke="none" 
	d="
M306.826172,735.766724 
	C309.448456,733.955505 311.865692,732.461792 314.082245,730.713562 
	C317.538391,727.987549 320.911713,726.657959 324.799164,729.963501 
	C329.012024,733.545898 330.914673,739.587646 328.788605,743.809631 
	C327.978729,745.417847 326.911346,747.034302 325.579773,748.217651 
	C320.235596,752.966797 314.939514,757.808411 309.249756,762.119690 
	C303.161469,766.733032 297.823517,766.135681 293.823242,761.128357 
	C289.164978,755.297485 289.634125,749.464600 295.454407,744.492676 
	C298.991974,741.470764 302.828766,738.799194 306.826172,735.766724 
z"/>
<path fill="#000000" opacity="1.000000" stroke="none" 
	d="
M832.547729,669.314880 
	C827.424194,676.759155 823.188843,677.816956 815.956238,673.351440 
	C811.719849,670.735840 807.512207,667.979187 803.696106,664.800476 
	C798.644165,660.592407 797.731018,655.443481 800.520020,650.621033 
	C803.080261,646.194214 807.318787,644.541504 811.960449,646.673584 
	C818.315918,649.592896 824.367065,653.146362 829.770569,657.602905 
	C833.333984,660.541626 835.445923,664.230225 832.547729,669.314880 
z"/>
<path fill="#000000" opacity="1.000000" stroke="none" 
	d="
M728.211426,279.438721 
	C721.968445,281.982239 719.276794,281.132446 716.380676,275.976654 
	C713.352539,270.585693 714.098206,267.325928 719.254883,263.703094 
	C724.003662,260.366760 728.816833,257.121246 733.536682,253.744934 
	C736.637939,251.526398 739.860474,251.133850 743.412842,252.436951 
	C751.311462,255.334442 752.865173,263.281830 746.549683,268.744324 
	C741.207581,273.364899 734.680603,275.973877 728.211426,279.438721 
z"/>
<path fill="#000000" opacity="1.000000" stroke="none" 
	d="
M263.309143,711.847229 
	C259.201935,712.614868 255.697998,712.547607 252.480850,710.090576 
	C247.293396,706.128784 244.132187,699.730896 245.833069,696.173035 
	C248.002182,691.635803 257.271637,687.670288 262.752930,688.934631 
	C270.902039,690.814331 275.685547,695.505188 275.408813,701.401306 
	C275.059540,708.843201 268.877411,709.715576 263.309143,711.847229 
z"/>
<path fill="#000000" opacity="1.000000" stroke="none" 
	d="
M696.115967,226.939590 
	C700.038818,227.335571 702.708069,229.183563 704.686035,232.053574 
	C707.087463,235.538315 707.115479,239.017151 703.862366,241.915359 
	C698.761108,246.460129 693.194641,250.434753 687.165588,253.646027 
	C682.910217,255.912552 679.481201,253.938553 676.603699,250.674637 
	C673.808716,247.504303 675.416992,244.384796 677.591614,242.194351 
	C683.156189,236.589188 687.948425,229.962921 696.115967,226.939590 
z"/>
<path fill="#000000" opacity="1.000000" stroke="none" 
	d="
M373.880676,766.002075 
	C379.929688,771.534851 380.536713,774.971130 376.586029,779.804810 
	C371.792847,785.669373 366.194336,786.647827 360.480621,782.587708 
	C359.536163,781.916565 358.625916,781.178040 357.789642,780.376892 
	C352.780487,775.578430 352.007751,772.456421 354.754303,768.331482 
	C358.660614,762.464722 363.144745,760.895081 369.216370,763.396851 
	C370.738953,764.024292 372.126068,764.980530 373.880676,766.002075 
z"/>
<path fill="#000000" opacity="1.000000" stroke="none" 
	d="
M683.314331,602.378174 
	C651.943970,623.508911 617.841492,637.056091 581.197693,644.439026 
	C577.660461,645.151794 574.115906,645.005737 572.519653,641.519287 
	C570.843750,637.858948 573.532104,635.290649 576.356934,633.227783 
	C576.891846,632.837158 577.459229,632.419495 578.077820,632.225769 
	C587.521240,629.268677 587.677979,612.515686 581.081482,607.495728 
	C581.419739,605.968323 582.753662,605.512878 583.930603,604.953064 
	C600.759766,596.949524 617.497070,588.775879 633.343567,578.904846 
	C634.733948,578.038696 636.167786,577.247864 637.861389,578.765259 
	C642.768921,583.162170 648.975220,583.667786 655.119507,584.045654 
	C660.094604,584.351685 665.113647,584.249695 670.077271,584.213196 
	C676.090637,584.168884 679.912354,579.694641 682.499329,574.687988 
	C684.279419,571.242981 686.101440,567.988770 688.988708,565.348389 
	C690.904907,563.595947 692.203064,561.344971 691.679565,558.673401 
	C690.736755,553.862000 691.008057,549.114014 691.435059,544.270020 
	C691.772095,540.446594 690.948608,536.644348 688.151855,533.586548 
	C683.527893,528.531128 682.523254,522.820190 685.211731,516.488892 
	C685.406860,516.029419 685.572632,515.556946 685.740723,515.086548 
	C688.894958,506.257019 688.858521,506.167786 680.345398,501.781250 
	C679.605347,501.399933 678.857605,501.033112 678.124573,500.638855 
	C671.448364,497.048584 670.750977,494.998718 673.928528,488.330688 
	C676.420959,483.100281 680.748413,481.729187 686.429199,484.369934 
	C691.141052,486.560272 694.214844,485.757904 696.002075,481.871185 
	C697.441406,478.740784 695.454468,474.040161 691.824158,472.286163 
	C690.233826,471.517731 688.509827,471.025879 685.772278,470.009644 
	C691.333618,466.656799 696.611694,465.504608 701.759949,464.102295 
	C717.155457,459.908813 732.629700,455.991821 747.950500,451.544220 
	C752.945007,450.094330 755.722107,451.013611 757.381958,455.979462 
	C757.973267,457.748383 758.139282,459.959808 760.258057,461.228363 
	C764.464050,458.655853 761.412231,452.924591 764.871887,449.932983 
	C766.867371,451.448639 766.329468,453.442993 766.240845,455.111908 
	C765.153320,475.594238 763.388550,496.033722 755.380249,515.193787 
	C745.513611,538.799805 731.137146,559.495544 713.209167,577.729492 
	C704.190674,586.901855 694.405029,595.149597 683.314331,602.378174 
z"/>
<path fill="#000000" opacity="1.000000" stroke="none" 
	d="
M671.203613,649.841370 
	C660.477600,659.245544 648.832520,666.488770 635.384644,670.252014 
	C622.594360,673.831299 610.279968,679.047607 597.069641,681.212646 
	C593.742920,681.757874 590.429626,682.474487 587.196899,681.638489 
	C579.939331,679.761841 572.617249,678.322144 565.204407,677.249084 
	C563.130737,676.948914 561.127319,676.163513 558.741150,675.503906 
	C562.678955,669.395386 566.261230,664.419434 574.438843,666.575317 
	C578.286194,667.589661 581.786987,664.546936 584.773315,662.577026 
	C587.523621,660.762939 590.280334,659.584778 593.305664,658.865662 
	C623.810486,651.614807 652.091187,638.860962 679.567871,624.111084 
	C682.954895,622.292908 685.610840,619.070435 690.159363,618.928406 
	C681.144043,627.531982 671.363831,635.576599 671.203613,649.841370 
z"/>
<path fill="#000000" opacity="1.000000" stroke="none" 
	d="
M484.391235,474.886902 
	C468.795959,472.804016 454.192047,468.998749 441.109558,460.780792 
	C417.755402,446.110565 408.585388,410.348511 423.229553,388.572845 
	C432.384003,374.960327 444.339478,364.758545 461.080505,360.214355 
	C490.939880,352.109344 520.264038,352.094452 549.264160,363.069946 
	C562.623352,368.125916 574.575500,375.872070 581.282349,388.870636 
	C591.974976,409.594177 588.100952,433.829773 568.359253,452.151184 
	C552.178711,467.167694 532.644287,473.342529 511.203461,475.402374 
	C502.337189,476.254150 493.605316,476.067657 484.391235,474.886902 
M471.309113,428.353577 
	C478.267792,430.066589 485.123718,430.031158 491.879730,427.332123 
	C498.525238,424.677124 505.225006,422.157867 511.871460,419.505096 
	C515.173828,418.187042 518.548645,417.524780 522.105957,417.671875 
	C526.148743,417.839111 528.651367,420.141815 529.834412,423.703094 
	C531.063782,427.403992 528.130188,429.235291 525.605103,430.740723 
	C518.518799,434.965302 510.865784,437.736420 502.580811,438.314423 
	C498.551483,438.595581 495.674469,440.248810 493.721710,443.795258 
	C492.398285,446.198761 492.768127,447.694550 495.281342,449.002167 
	C500.989319,451.972076 506.722656,453.443481 512.879883,450.406616 
	C515.712402,449.009613 518.641418,447.796417 521.414856,446.293488 
	C528.890015,442.242828 529.506897,440.879486 534.943298,448.054565 
	C538.639160,452.932373 543.971802,452.419067 548.200012,447.638153 
	C551.774719,443.596130 551.407227,441.026337 545.847534,437.175568 
	C541.944031,434.471985 541.527222,432.365143 544.583191,428.449402 
	C549.309875,422.393066 546.625671,412.950958 539.827759,409.155823 
	C528.997009,403.109253 517.943115,403.158203 506.698914,407.792053 
	C501.317230,410.009949 496.049133,412.534698 490.575806,414.490082 
	C485.235077,416.398102 480.013123,415.921448 475.774902,411.632568 
	C471.963684,407.775818 472.121613,404.364258 476.479736,401.186066 
	C481.208557,397.737610 486.515686,395.304169 492.056000,393.398193 
	C493.867218,392.775085 495.614258,392.911377 497.445374,393.384216 
	C501.459106,394.420685 507.712952,390.072937 507.485779,385.876312 
	C507.239563,381.327515 502.931885,381.796631 499.837494,381.326904 
	C497.047516,380.903381 494.189117,381.147430 491.477051,382.201843 
	C487.603119,383.708038 483.538269,384.846405 479.892700,386.778992 
	C476.777161,388.430603 474.399017,388.292023 471.679474,386.221558 
	C469.304596,384.413513 466.739075,382.768127 463.809814,381.959625 
	C459.670166,380.817078 456.058044,382.248108 453.590210,385.409576 
	C450.883545,388.877045 454.815796,390.614685 456.392975,392.867188 
	C457.053009,393.809784 457.979675,394.569611 458.807434,395.390106 
	C460.557434,397.124786 460.759521,398.782227 459.580627,401.167175 
	C453.947021,412.564148 458.600800,423.748901 471.309113,428.353577 
z"/>
<path fill="#000000" opacity="1.000000" stroke="none" 
	d="
M408.578979,500.773926 
	C398.947144,505.989685 389.296539,506.971771 379.407104,502.976410 
	C371.809387,499.906952 367.113220,492.559753 367.851318,485.472351 
	C368.713867,477.189758 374.682098,470.480347 382.793915,468.802277 
	C390.393738,467.230164 397.817535,466.970337 405.322235,469.990814 
	C419.875214,475.847900 419.366119,493.892761 408.578979,500.773926 
z"/>
<path fill="#000000" opacity="1.000000" stroke="none" 
	d="
M588.054138,347.035400 
	C589.747559,336.114624 600.888794,328.579346 612.613403,329.941498 
	C621.172485,330.935822 627.804565,334.516602 630.952209,343.056061 
	C633.286621,349.389099 631.005676,354.503754 626.580811,358.862915 
	C618.393494,366.928650 601.463135,367.019257 593.042236,359.086975 
	C589.739380,355.975769 588.356689,351.906342 588.054138,347.035400 
z"/>
<path fill="#000000" opacity="1.000000" stroke="none" 
	d="
M392.899536,296.841736 
	C370.665588,309.380768 348.846893,321.840851 329.261108,337.822388 
	C322.139099,343.633759 315.692688,350.107025 309.158020,356.516541 
	C308.130249,357.524628 307.478363,359.101715 305.626678,358.970306 
	C304.203766,358.073914 304.584412,356.710968 304.667358,355.392548 
	C305.061646,349.127808 302.784637,346.558380 296.537506,346.076294 
	C294.437103,345.914185 292.202087,346.483337 290.383789,344.744659 
	C286.331635,340.869812 286.211334,339.154327 289.781860,334.679596 
	C303.744629,317.180878 320.805359,303.221100 339.359192,290.897278 
	C347.676453,285.372803 355.628418,279.304993 364.391174,274.446594 
	C365.956055,273.578949 367.304016,272.229919 368.567444,270.924377 
	C373.885834,265.428772 373.862549,263.403564 368.609070,258.114136 
	C365.207611,254.689346 361.803833,251.266769 358.428284,247.816620 
	C358.246155,247.630539 358.315399,247.198547 358.193451,246.387970 
	C364.425049,244.386368 370.967712,245.071121 377.183990,245.542740 
	C403.584991,247.545731 430.009094,248.598175 456.473602,248.978271 
	C460.707642,249.039093 466.264618,247.695480 468.531799,251.714462 
	C470.791779,255.720764 466.820129,259.830963 464.570648,263.359497 
	C455.887238,276.980347 448.021759,291.062073 440.167297,305.163666 
	C435.990906,312.661682 434.626495,312.538452 428.263092,307.245605 
	C423.299011,303.116608 418.392303,298.815857 412.391693,296.079498 
	C405.871338,293.106140 399.518066,293.160767 392.899536,296.841736 
M463.352264,256.913025 
	C464.136932,255.977448 464.888580,254.935028 463.571808,253.963989 
	C462.321442,253.041931 461.015900,253.538559 459.963318,254.458221 
	C459.152557,255.166611 458.895447,256.207001 459.475494,257.149750 
	C460.461395,258.752045 461.698151,258.030304 463.352264,256.913025 
z"/>
</svg>