<svg version="1.1" id="Layer_1" xmlns="http://www.w3.org/2000/svg" xmlns:xlink="http://www.w3.org/1999/xlink" x="0px" y="0px"
	 width="225" height="112.5" viewBox="0 0 992 992" enable-background="new 0 0 992 992" xml:space="preserve">
<path fill="#CF1968" opacity="1.000000" stroke="#CF1968" 
	d="
M481.312012,547.695618 
	C476.344971,542.739502 471.829346,537.803589 466.844940,533.398193 
	C463.342285,530.302490 463.790588,528.065735 467.043549,525.430054 
	C470.136658,522.923889 473.124725,520.288086 476.320190,517.572266 
	C471.369080,510.922150 466.134338,506.534729 461.357941,501.749298 
	C428.995300,469.326019 396.533722,437.001373 364.227936,404.521729 
	C361.195282,401.472748 359.050049,400.847290 356.274017,404.452820 
	C355.064331,406.023956 353.476440,407.302338 352.072998,408.726135 
	C347.156525,413.713898 347.185822,413.688873 342.408051,408.897491 
	C332.761383,399.223328 323.179565,389.480957 313.360168,379.984711 
	C310.183044,376.912140 309.750580,374.861603 313.200531,371.560699 
	C323.429901,361.773193 333.441925,351.750488 343.302338,341.590118 
	C346.418884,338.378815 348.647827,338.362885 351.361877,341.752167 
	C354.166687,345.254822 357.158447,348.607819 360.533386,351.586243 
	C363.142090,350.925415 364.004730,349.289032 365.125366,348.169373 
	C401.073181,312.253143 436.945709,276.261292 472.988678,240.440948 
	C476.417908,237.032867 476.695801,234.817780 472.971771,231.749252 
	C470.284729,229.535202 468.027710,226.805328 465.515839,224.370575 
	C463.709564,222.619751 463.723175,221.154541 465.567474,219.333542 
	C476.472443,208.566086 487.335541,197.755508 498.124329,186.871796 
	C500.256439,184.720886 501.803986,184.767929 503.914062,186.906357 
	C514.563171,197.698410 525.279175,208.425491 536.063660,219.082260 
	C538.257751,221.250412 538.208496,222.963715 535.938904,224.850571 
	C535.428589,225.274826 534.982056,225.777847 534.520569,226.258499 
	C525.451721,235.704788 524.356445,233.311493 534.690247,243.675323 
	C568.806274,277.890533 603.043579,311.984833 637.112366,346.246857 
	C640.604980,349.759308 642.833191,349.969238 646.376343,346.238495 
	C654.533813,337.649048 654.738037,337.810333 663.129028,346.169800 
	C671.862915,354.870972 680.493286,363.677338 689.313965,372.289185 
	C691.937866,374.850922 691.990295,376.656860 689.330811,379.264343 
	C678.861694,389.528381 668.499023,399.903900 658.254150,410.391724 
	C655.566284,413.143372 653.797791,412.720551 651.288391,410.192993 
	C642.949951,401.794464 642.875244,401.870972 634.687805,410.055756 
	C600.634216,444.098389 566.592712,478.153229 532.485779,512.142334 
	C530.853149,513.769348 528.639221,514.812927 526.881958,516.002380 
	C529.850342,521.043701 533.005310,523.538452 535.789307,526.321838 
	C537.821899,528.354004 538.192810,529.901794 535.945496,532.115234 
	C525.147827,542.750244 514.428528,553.465698 503.774689,564.244873 
	C501.554565,566.491028 500.012848,566.060730 497.991089,564.019531 
	C492.600006,558.576477 487.050018,553.290771 481.312012,547.695618 
M624.944641,367.451904 
	C632.331482,360.146118 632.314758,360.162842 625.079773,352.935150 
	C591.132263,319.022247 557.224121,285.069794 523.230835,251.202896 
	C515.706604,243.706696 517.571106,243.239243 509.682190,251.126297 
	C501.042694,259.763733 501.083435,259.803894 492.594269,251.396606 
	C492.002380,250.810440 491.304230,250.305038 490.818451,249.642578 
	C488.203369,246.076370 486.050293,246.375336 482.912384,249.529938 
	C447.193939,285.438751 411.327118,321.199982 375.527710,357.028351 
	C374.160889,358.396301 372.332733,359.492737 371.319641,362.361206 
	C374.698944,366.037933 378.390045,369.388000 382.212830,372.580414 
	C384.787292,374.730347 384.498871,376.428986 382.204834,378.685120 
	C378.204834,382.619110 373.880585,386.287018 370.683380,390.745636 
	C371.268524,393.000427 372.878937,394.045929 374.142853,395.315460 
	C390.835266,412.082336 407.555908,428.821136 424.274933,445.561493 
	C443.466553,464.777557 462.723846,483.928741 481.795135,503.263428 
	C484.742279,506.251282 486.687073,506.333832 489.386261,503.240082 
	C492.008392,500.234650 495.101227,497.644653 497.808441,494.707336 
	C500.191711,492.121552 502.092072,492.300751 504.386078,494.875580 
	C506.929688,497.730530 509.805695,500.288544 512.524841,502.988129 
	C517.770203,508.195648 517.766968,508.199524 522.861389,503.138824 
	C523.334167,502.669159 523.797058,502.189514 524.267456,501.717346 
	C557.656006,468.198273 591.006653,434.641296 624.459167,401.186157 
	C633.410828,392.233795 633.481628,392.447327 624.568176,383.354370 
	C615.475037,374.077972 616.046448,376.794281 624.944641,367.451904 
M518.859131,222.229431 
	C514.209412,214.677200 507.190948,209.478806 500.486511,202.620102 
	C495.140656,208.252609 490.460724,213.437302 485.487335,218.323303 
	C482.743469,221.018936 483.214996,222.940399 485.737457,225.354645 
	C489.943573,229.380341 494.088226,233.492065 497.971710,237.824844 
	C500.246063,240.362335 501.941406,240.155182 504.083496,237.887314 
	C508.880524,232.808624 513.759399,227.807190 518.859131,222.229431 
M333.178497,370.676392 
	C328.425446,375.660797 328.421387,375.664825 333.229797,380.503021 
	C336.865723,384.161469 340.571167,387.753113 344.133240,391.481873 
	C346.084167,393.524078 347.769196,394.047607 349.957062,391.769989 
	C354.334900,387.212555 358.821411,382.757904 363.322906,378.321564 
	C365.217438,376.454437 365.438171,374.910553 363.353210,372.911682 
	C358.790558,368.537567 354.332642,364.046295 349.993561,359.450256 
	C347.851074,357.180878 346.257538,357.432953 344.243073,359.569611 
	C340.820404,363.199860 337.209045,366.652161 333.178497,370.676392 
M499.015381,546.343506 
	C500.075104,547.337402 501.301575,548.019165 502.523499,546.816772 
	C508.274323,541.157532 513.960876,535.432922 520.088196,529.314453 
	C514.138306,523.489502 508.765991,518.299194 503.482758,513.019775 
	C501.663483,511.201843 500.171844,511.298828 498.421265,513.082703 
	C493.874878,517.715454 489.310669,522.334351 484.628662,526.828674 
	C482.586853,528.788696 482.663116,530.235168 484.690948,532.166016 
	C489.390350,536.640503 493.920868,541.292297 499.015381,546.343506 
M652.381958,392.002716 
	C653.884277,393.434509 655.363953,394.033417 657.102112,392.247589 
	C661.866516,387.352417 666.690918,382.515656 671.482666,377.646912 
	C672.512268,376.600769 673.108765,375.388245 671.899414,374.147980 
	C666.359375,368.466064 660.774292,362.828064 654.973267,356.938660 
	C648.205933,363.083801 642.251038,369.027985 635.549683,376.433044 
	C641.160400,381.630737 646.512329,386.588623 652.381958,392.002716 
z"/>
<path fill="#CF1968" opacity="1.000000" stroke="#CF1968" 
	d="
M134.946732,815.369019 
	C96.181763,816.846924 70.024986,788.459839 67.584991,750.689087 
	C65.604027,720.024170 73.723816,692.606018 93.773674,669.249023 
	C112.651619,647.257202 136.982193,635.980347 165.973953,634.853760 
	C170.329636,634.684509 174.654282,635.228882 178.847000,636.215332 
	C198.939148,640.942871 209.006699,658.321289 202.779449,678.737244 
	C195.993423,700.985107 180.714630,715.468994 159.053848,723.378418 
	C154.916916,724.888977 154.059174,724.052979 151.906784,717.254822 
	C158.917587,713.506226 164.966400,708.407227 168.990540,701.247620 
	C173.791718,692.705322 175.681564,683.734192 174.002457,673.889099 
	C170.035629,650.630493 146.394913,645.931580 130.470139,656.414490 
	C119.034431,663.942322 111.679321,674.783569 106.925850,687.319458 
	C97.223869,712.905640 96.489120,738.762817 107.114784,764.193970 
	C113.920692,780.482910 125.684464,791.671143 144.049225,794.220642 
	C154.236633,795.634888 163.499115,792.722412 172.265549,787.894409 
	C177.828751,784.830505 182.965439,781.072693 187.483749,776.614868 
	C190.576447,773.563538 192.352692,775.750061 194.556900,777.637939 
	C196.896271,779.641724 197.286819,781.397827 195.048050,783.870789 
	C180.956421,799.436890 164.704468,811.345825 143.384781,814.768860 
	C140.770569,815.188599 138.086884,815.175537 134.946732,815.369019 
z"/>
<path fill="#CF1968" opacity="1.000000" stroke="#CF1968" 
	d="
M463.055023,710.400391 
	C463.192139,736.177002 463.269531,761.494019 463.351440,786.811096 
	C463.356293,788.309692 463.242310,789.829956 463.449219,791.302856 
	C464.234985,796.895935 468.635864,799.097656 473.718262,796.610962 
	C476.799805,795.103271 478.545624,792.088684 481.161102,790.132141 
	C486.339844,793.094482 486.676270,794.361816 483.597839,798.981323 
	C475.379364,811.313660 462.250000,817.141663 449.834808,813.968201 
	C439.729248,811.385132 433.788422,802.941284 433.709686,790.391418 
	C433.578033,769.404297 433.692444,748.415833 433.629181,727.428040 
	C433.618439,723.865173 434.553894,719.229431 430.295471,717.847534 
	C426.483002,716.610291 423.579651,719.969482 421.112000,722.708984 
	C417.389832,726.841064 414.911377,731.775208 412.645599,736.781860 
	C402.624115,758.926453 396.505554,782.168396 393.392731,806.231873 
	C393.154083,808.076721 393.288086,809.879639 390.822876,810.410095 
	C382.259186,812.252808 373.717102,814.196106 365.426636,816.043213 
	C363.324677,813.450500 363.960999,811.029358 363.957275,808.777161 
	C363.907043,778.294800 363.939301,747.812378 363.865875,717.330078 
	C363.856171,713.296814 364.923523,708.337280 359.805054,706.564270 
	C354.733398,704.807495 351.410248,708.395447 348.337463,711.827087 
	C347.681244,712.559998 346.981598,713.253967 346.140503,714.134949 
	C342.969452,712.562195 340.785522,710.819092 342.438080,706.832214 
	C347.396332,694.870605 363.090637,686.440918 375.723785,689.038025 
	C387.025604,691.361389 393.137451,699.080933 393.298431,711.742310 
	C393.459351,724.399658 393.338959,737.060547 393.341675,749.719910 
	C393.342224,752.150635 393.341766,754.581299 394.004578,757.072388 
	C396.564270,749.770813 398.955292,742.404602 401.722809,735.182678 
	C405.962494,724.119080 410.882141,713.349365 418.045929,703.819214 
	C424.257111,695.556213 431.977386,689.350891 442.801117,688.737000 
	C454.027069,688.100220 460.682281,693.837891 462.309692,704.999207 
	C462.549591,706.644775 462.767975,708.293579 463.055023,710.400391 
z"/>
<path fill="#CF1968" opacity="1.000000" stroke="#CF1968" 
	d="
M302.793030,804.858521 
	C270.715576,827.951355 226.027557,815.104858 214.553085,779.092224 
	C206.858017,754.941223 213.276001,733.069031 229.477463,714.039917 
	C239.413376,702.369934 252.024765,694.523621 266.474304,689.425781 
	C270.214691,688.106079 272.501953,688.900574 274.394562,692.079529 
	C276.467377,695.561035 273.175323,696.408569 271.454651,697.794800 
	C257.206482,709.273987 245.899490,722.727112 242.923889,741.459351 
	C240.475647,756.871704 242.251740,771.685059 250.939056,785.109314 
	C258.611572,796.965454 269.455780,801.894897 283.448273,799.563416 
	C294.114807,797.786133 303.726074,787.576782 306.533325,775.178589 
	C312.250183,749.930115 293.880035,720.426208 268.588959,714.254272 
	C267.455811,713.977783 266.274689,713.849365 265.531921,712.182312 
	C270.160278,706.225952 276.373383,701.781799 282.505127,697.285767 
	C292.019928,690.309265 292.151794,690.218445 302.197144,696.610291 
	C319.045685,707.330750 327.718842,723.393494 329.031677,742.748779 
	C330.700592,767.353210 322.683014,788.602661 302.793030,804.858521 
z"/>
<path fill="#CF1968" opacity="1.000000" stroke="#CF1968" 
	d="
M675.245117,795.813110 
	C695.908264,803.358704 711.850403,795.388733 726.139160,781.590210 
	C727.674683,780.107361 728.753540,778.131165 730.777405,777.197815 
	C736.620239,780.798767 736.980652,782.340271 732.758179,786.988037 
	C721.081665,799.840637 708.389343,811.000183 690.588562,814.776672 
	C660.413025,821.178650 632.377136,806.175476 624.277954,778.528259 
	C618.471191,758.706665 622.471313,740.124512 633.761169,723.335510 
	C648.972534,700.714905 670.012329,688.055115 697.943481,688.708923 
	C715.819458,689.127319 728.765015,701.368286 728.242676,717.226624 
	C727.997009,724.687012 724.689514,731.027344 720.252930,736.784912 
	C705.855713,755.468628 687.123413,768.876404 666.852966,780.383118 
	C665.283569,781.274109 663.685669,782.114868 661.522461,783.294495 
	C664.848755,788.957153 669.298279,792.893982 675.245117,795.813110 
M649.366577,755.126282 
	C650.073914,760.239075 651.160583,765.236755 653.015198,770.093689 
	C654.426880,773.790588 656.288879,774.120605 659.389954,771.990784 
	C671.873169,763.417053 682.754639,753.252502 691.025208,740.476196 
	C693.384399,736.831726 695.505676,732.955566 696.288025,728.678467 
	C697.570251,721.669250 698.127625,714.482239 692.005127,709.205078 
	C686.415405,704.387146 679.825378,704.452759 673.146057,706.729309 
	C669.952515,707.817688 667.189270,709.642456 664.738220,711.975952 
	C652.617981,723.514343 648.981079,738.130859 649.366577,755.126282 
z"/>
<path fill="#CF1968" opacity="1.000000" stroke="#CF1968" 
	d="
M903.264648,767.000000 
	C903.277100,774.998108 903.207825,782.497559 903.325195,789.994019 
	C903.432007,796.819519 907.902161,799.441467 914.081726,796.447144 
	C916.512451,795.269287 918.613281,793.648560 920.417358,791.646973 
	C921.692383,790.232361 923.042053,789.490112 924.596985,791.207825 
	C925.880920,792.626160 927.853333,793.754822 926.613159,796.259583 
	C919.942505,809.731750 898.027344,821.430237 881.887085,810.689392 
	C874.256592,805.611633 872.849487,797.362244 872.791016,789.034973 
	C872.617737,764.375610 872.737549,739.714233 872.724121,715.053650 
	C872.720276,707.984436 872.690369,708.038391 865.472961,707.919128 
	C862.531921,707.870544 859.488525,708.514343 856.109192,706.800659 
	C857.641846,701.562683 860.375244,696.863586 862.925903,692.123108 
	C863.944397,690.230103 866.180542,690.594177 867.948853,690.762451 
	C871.769897,691.125916 872.804199,689.390320 872.771240,685.797302 
	C872.635071,670.968872 872.847961,656.136719 872.640625,641.309937 
	C872.585144,637.338440 873.747192,635.230652 877.678589,634.094116 
	C884.389099,632.154175 890.960266,629.731506 897.585022,627.496826 
	C899.152832,626.968018 900.682068,626.227661 902.395142,626.855225 
	C903.760803,628.673645 903.242065,630.745544 903.246826,632.686707 
	C903.289490,650.182251 903.406738,667.679688 903.180420,685.172424 
	C903.122803,689.629211 904.574402,690.963379 908.916809,690.809143 
	C917.166870,690.516113 925.434692,690.724243 934.388245,690.724243 
	C932.863586,696.870483 930.205444,701.470520 927.942078,706.196960 
	C927.027466,708.106873 924.833069,707.884033 923.019592,707.902222 
	C918.521179,707.947388 914.005737,708.148560 909.527588,707.841919 
	C904.836914,707.520630 903.094177,709.069641 903.168213,714.014343 
	C903.430176,731.506104 903.266602,749.004272 903.264648,767.000000 
z"/>
<path fill="#CF1968" opacity="1.000000" stroke="#CF1968" 
	d="
M602.298889,689.696045 
	C614.425781,702.562683 613.124512,716.897156 606.448059,730.842224 
	C593.359253,758.180908 579.376587,785.091553 565.782715,812.188843 
	C563.689392,816.361511 560.131409,817.466125 555.811768,817.325989 
	C551.639099,817.190735 549.176086,815.074219 547.492065,811.329590 
	C535.604187,784.896545 523.619019,758.507385 511.641510,732.114746 
	C509.442383,727.268921 507.573486,722.214966 503.893982,718.204102 
	C499.765930,713.704407 496.730652,713.385254 491.840240,717.012207 
	C490.376007,718.098145 489.205414,718.875793 487.440155,717.553772 
	C485.728790,716.272034 485.257294,714.836121 485.807495,712.792236 
	C488.640839,702.267151 505.312256,690.230530 516.216858,690.934143 
	C521.732605,691.290039 525.355896,694.519226 528.169678,698.944397 
	C535.095032,709.835754 539.398010,721.983948 544.713501,733.639832 
	C551.761780,749.095337 558.501526,764.691406 565.411438,780.210327 
	C565.935974,781.388367 566.236694,782.775452 567.942200,783.758972 
	C569.662659,780.345520 571.406372,776.990051 573.057434,773.589478 
	C577.204895,765.047180 581.433960,756.541443 585.406067,747.917786 
	C592.650696,732.189453 589.116394,719.268677 574.788757,709.815186 
	C571.325500,707.530090 571.245911,705.854675 573.659119,702.799500 
	C578.097473,697.180420 582.365356,691.407043 586.367798,685.471130 
	C588.534546,682.257812 590.715698,681.908508 593.868713,683.719910 
	C596.774475,685.389282 599.500244,687.271729 602.298889,689.696045 
z"/>
<path fill="#CF1968" opacity="1.000000" stroke="#CF1968" 
	d="
M823.211731,813.509216 
	C816.355713,815.828918 809.661255,816.156677 803.107300,814.757019 
	C792.223328,812.432617 784.591431,803.306458 782.683838,791.461670 
	C780.030579,774.987061 785.699707,760.305115 792.425354,745.864075 
	C795.882019,738.442017 800.415405,731.668274 806.123962,724.579224 
	C798.763672,727.088318 792.014221,728.844971 784.925537,728.310852 
	C783.433899,728.198486 781.919739,728.213623 780.454163,727.954163 
	C772.927429,726.622070 772.961731,726.611389 769.677734,733.715515 
	C766.254700,741.120483 762.613098,748.428406 759.354858,755.904236 
	C756.795715,761.776306 753.515747,757.874512 750.429749,756.885376 
	C746.735291,755.701172 747.334717,753.567017 748.778625,750.720520 
	C752.995789,742.406921 756.776184,733.869873 761.066895,725.596191 
	C762.704895,722.437683 762.388672,720.398804 759.552124,718.444458 
	C758.471680,717.700073 757.614014,716.624939 756.682434,715.673462 
	C753.613037,712.538574 753.417542,709.795654 756.798218,706.371826 
	C762.524719,700.572327 767.727783,694.257935 773.209961,688.213562 
	C774.398193,686.903442 775.326538,685.177917 777.618652,684.781677 
	C779.883423,689.130249 781.596497,693.821167 784.760254,697.720642 
	C792.944519,707.807983 803.245422,710.621460 815.567566,707.081543 
	C821.527100,705.369385 827.283325,703.182007 832.455933,699.762024 
	C835.148743,697.981567 836.916443,698.565308 838.856750,700.818176 
	C841.057068,703.373047 839.032288,704.677856 837.573730,706.195496 
	C824.473022,719.826843 813.906738,735.020874 808.956299,753.539551 
	C806.931213,761.114807 806.062500,768.832214 807.330750,776.724304 
	C809.794617,792.056396 822.866943,799.666382 837.334656,794.000916 
	C838.879333,793.396057 840.405579,792.683411 841.821289,791.824463 
	C843.868958,790.582214 845.151062,791.447754 846.514343,792.993835 
	C848.032471,794.715576 847.850220,796.048401 846.386780,797.744995 
	C840.152466,804.972107 832.590942,810.206177 823.211731,813.509216 
z"/>
</svg>